<svg xmlns="http://www.w3.org/2000/svg" x="0px" y="0px" width="100" height="100" viewBox="0,0,256,256">
<g fill="#a9adb1" fill-rule="nonzero" stroke="none" stroke-width="1" stroke-linecap="butt" stroke-linejoin="miter" stroke-miterlimit="10" stroke-dasharray="" stroke-dashoffset="0" font-family="none" font-weight="none" font-size="none" text-anchor="none" style="mix-blend-mode: normal"><g transform="scale(3.55556,3.55556)"><path d="M46.955,1.353c0.246,3.559 -0.915,6.425 -2.628,8.527c-2.519,3.092 -6.232,4.533 -8.422,4.105c-0.412,-2.47 0.61,-5.623 2.686,-8.164c1.958,-2.393 4.85,-4.243 8.364,-4.468zM36.378,17.159c2.498,0 5.203,-2.532 9.658,-2.532c2.007,0 7.762,0.607 10.934,5.486c-1.26,0.913 -5.917,3.843 -5.917,10.514c0,7.859 6.366,10.579 7.33,11.077c-0.348,1.299 -2.026,5.802 -4.856,9.329c-0.876,1.091 -3.507,5.281 -7.436,5.281c-3.568,0 -4.926,-2.208 -9.043,-2.208c-4.69,0 -4.914,2.248 -9.476,2.248c-0.958,0 -2.363,-0.433 -3.477,-1.413c-3.955,-3.482 -10.478,-12.483 -10.478,-23.71c0,-11.093 7.357,-16.418 13.809,-16.418c4.056,-0.001 6.37,2.346 8.952,2.346z"></path></g></g>
</svg>