<svg width="40" height="40" viewBox="0 0 40 40" fill="none" xmlns="http://www.w3.org/2000/svg">
<g clip-path="url(#clip0_30_1011)">
<path d="M30.625 0H9.375C4.19733 0 0 4.19733 0 9.375V30.625C0 35.8027 4.19733 40 9.375 40H30.625C35.8027 40 40 35.8027 40 30.625V9.375C40 4.19733 35.8027 0 30.625 0Z" fill="#5865F2"/>
<mask id="mask0_30_1011" style="mask-type:luminance" maskUnits="userSpaceOnUse" x="4" y="7" width="32" height="26">
<path d="M35.625 7.96875H4.375V32.1766H35.625V7.96875Z" fill="white"/>
</mask>
<g mask="url(#mask0_30_1011)">
<path d="M30.8294 10.1244C28.8377 9.2105 26.7019 8.53717 24.4686 8.15152C24.428 8.14408 24.3873 8.16267 24.3664 8.19988C24.0917 8.68844 23.7873 9.32582 23.5744 9.82678C21.1723 9.46719 18.7828 9.46719 16.4302 9.82678C16.217 9.31467 15.9017 8.68844 15.6258 8.19988C15.6048 8.16392 15.5642 8.14533 15.5235 8.15152C13.2915 8.53594 11.1557 9.20927 9.16267 10.1244C9.14542 10.1318 9.13064 10.1443 9.12081 10.1604C5.06951 16.2129 3.9597 22.1167 4.50414 27.9473C4.50661 27.9759 4.52261 28.0031 4.5448 28.0204C7.21772 29.9834 9.80691 31.1751 12.348 31.9649C12.3887 31.9773 12.4318 31.9624 12.4577 31.929C13.0588 31.1081 13.5946 30.2426 14.054 29.3324C14.0811 29.279 14.0552 29.2159 13.9998 29.1948C13.1499 28.8723 12.3406 28.4793 11.5621 28.0329C11.5006 27.997 11.4956 27.9088 11.5523 27.8667C11.7161 27.7438 11.88 27.6162 12.0364 27.4873C12.0647 27.4637 12.1041 27.4587 12.1374 27.4735C17.2517 29.8085 22.7884 29.8085 27.8423 27.4735C27.8756 27.4574 27.9152 27.4624 27.9447 27.486C28.1011 27.6149 28.2648 27.7438 28.43 27.8667C28.4866 27.9088 28.483 27.997 28.4214 28.0329C27.6428 28.4879 26.8336 28.8723 25.9825 29.1935C25.927 29.2146 25.9023 29.279 25.9295 29.3324C26.3988 30.2413 26.9345 31.1068 27.5245 31.9278C27.5492 31.9624 27.5936 31.9773 27.6342 31.9649C30.1877 31.1751 32.7769 29.9834 35.4498 28.0204C35.4731 28.0031 35.488 27.977 35.4905 27.9485C36.142 21.2078 34.3991 15.3523 30.87 10.1616C30.8614 10.1443 30.8467 10.1318 30.8294 10.1244ZM14.8177 24.3971C13.278 24.3971 12.0093 22.9835 12.0093 21.2474C12.0093 19.5113 13.2534 18.0978 14.8177 18.0978C16.3944 18.0978 17.6508 19.5238 17.6261 21.2474C17.6261 22.9835 16.382 24.3971 14.8177 24.3971ZM25.2016 24.3971C23.6617 24.3971 22.3931 22.9835 22.3931 21.2474C22.3931 19.5113 23.6372 18.0978 25.2016 18.0978C26.7781 18.0978 28.0345 19.5238 28.01 21.2474C28.01 22.9835 26.7781 24.3971 25.2016 24.3971Z" fill="white"/>
</g>
</g>
<defs>
<clipPath id="clip0_30_1011">
<rect width="40" height="40" fill="white"/>
</clipPath>
</defs>
</svg>
